<?xml version="1.0" encoding="UTF-8" standalone="no"?>
<!DOCTYPE svg PUBLIC "-//W3C//DTD SVG 1.1//EN"
 "http://www.w3.org/Graphics/SVG/1.1/DTD/svg11.dtd">
<!-- Generated by graphviz version 2.40.1 (20161225.0304)
 -->
<!-- Title: G Pages: 1 -->
<svg width="471pt" height="388pt"
 viewBox="0.00 0.00 471.42 388.00" xmlns="http://www.w3.org/2000/svg" xmlns:xlink="http://www.w3.org/1999/xlink">
<g id="graph0" class="graph" transform="scale(1 1) rotate(0) translate(4 384)">
<title>G</title>
<polygon fill="#ffffff" stroke="transparent" points="-4,4 -4,-384 467.4189,-384 467.4189,4 -4,4"/>
<!-- a -->
<g id="node1" class="node">
<title>a</title>
<path fill="none" stroke="#0000ff" d="M451.6286,-380C451.6286,-380 11.7903,-380 11.7903,-380 5.7903,-380 -.2097,-374 -.2097,-368 -.2097,-368 -.2097,-356 -.2097,-356 -.2097,-350 5.7903,-344 11.7903,-344 11.7903,-344 451.6286,-344 451.6286,-344 457.6286,-344 463.6286,-350 463.6286,-356 463.6286,-356 463.6286,-368 463.6286,-368 463.6286,-374 457.6286,-380 451.6286,-380"/>
<text text-anchor="middle" x="231.7095" y="-357.8" font-family="Times,serif" font-size="14.00" fill="#0000ff">BOULEVARD DU MARECHAL JEAN MARIE DE LATTRE DE TASSIGNY</text>
</g>
<!-- b -->
<g id="node2" class="node">
<title>b</title>
<path fill="none" stroke="#0000ff" d="M419.0504,-294C419.0504,-294 44.3685,-294 44.3685,-294 38.3685,-294 32.3685,-288 32.3685,-282 32.3685,-282 32.3685,-270 32.3685,-270 32.3685,-264 38.3685,-258 44.3685,-258 44.3685,-258 419.0504,-258 419.0504,-258 425.0504,-258 431.0504,-264 431.0504,-270 431.0504,-270 431.0504,-282 431.0504,-282 431.0504,-288 425.0504,-294 419.0504,-294"/>
<text text-anchor="middle" x="231.7095" y="-271.8" font-family="Times,serif" font-size="14.00" fill="#0000ff">BD DU MARECHAL JEAN MARIE DE LATTRE DE TASSIGNY</text>
</g>
<!-- a&#45;&gt;b -->
<g id="edge1" class="edge">
<title>a&#45;&gt;b</title>
<path fill="none" stroke="#a020f0" d="M231.7095,-343.7616C231.7095,-332.3597 231.7095,-317.4342 231.7095,-304.494"/>
<polygon fill="#a020f0" stroke="#a020f0" points="235.2096,-304.2121 231.7095,-294.2121 228.2096,-304.2121 235.2096,-304.2121"/>
<text text-anchor="middle" x="285.7544" y="-314.8" font-family="Times,serif" font-size="14.00" fill="#a020f0">simplify street type</text>
</g>
<!-- c -->
<g id="node3" class="node">
<title>c</title>
<path fill="none" stroke="#0000ff" d="M395.1021,-208C395.1021,-208 68.3169,-208 68.3169,-208 62.3169,-208 56.3169,-202 56.3169,-196 56.3169,-196 56.3169,-184 56.3169,-184 56.3169,-178 62.3169,-172 68.3169,-172 68.3169,-172 395.1021,-172 395.1021,-172 401.1021,-172 407.1021,-178 407.1021,-184 407.1021,-184 407.1021,-196 407.1021,-196 407.1021,-202 401.1021,-208 395.1021,-208"/>
<text text-anchor="middle" x="231.7095" y="-185.8" font-family="Times,serif" font-size="14.00" fill="#0000ff">BD DU MAL JEAN MARIE DE LATTRE DE TASSIGNY</text>
</g>
<!-- b&#45;&gt;c -->
<g id="edge2" class="edge">
<title>b&#45;&gt;c</title>
<path fill="none" stroke="#a020f0" d="M231.7095,-257.7616C231.7095,-246.3597 231.7095,-231.4342 231.7095,-218.494"/>
<polygon fill="#a020f0" stroke="#a020f0" points="235.2096,-218.2121 231.7095,-208.2121 228.2096,-218.2121 235.2096,-218.2121"/>
<text text-anchor="middle" x="335.2705" y="-228.8" font-family="Times,serif" font-size="14.00" fill="#a020f0">simplify titles (military, religious, ...)</text>
</g>
<!-- d -->
<g id="node4" class="node">
<title>d</title>
<path fill="none" stroke="#0000ff" d="M364.6678,-122C364.6678,-122 98.7511,-122 98.7511,-122 92.7511,-122 86.7511,-116 86.7511,-110 86.7511,-110 86.7511,-98 86.7511,-98 86.7511,-92 92.7511,-86 98.7511,-86 98.7511,-86 364.6678,-86 364.6678,-86 370.6678,-86 376.6678,-92 376.6678,-98 376.6678,-98 376.6678,-110 376.6678,-110 376.6678,-116 370.6678,-122 364.6678,-122"/>
<text text-anchor="middle" x="231.7095" y="-99.8" font-family="Times,serif" font-size="14.00" fill="#0000ff">BD DU MAL J M DE LATTRE DE TASSIGNY</text>
</g>
<!-- c&#45;&gt;d -->
<g id="edge3" class="edge">
<title>c&#45;&gt;d</title>
<path fill="none" stroke="#a020f0" d="M231.7095,-171.7616C231.7095,-160.3597 231.7095,-145.4342 231.7095,-132.494"/>
<polygon fill="#a020f0" stroke="#a020f0" points="235.2096,-132.2121 231.7095,-122.2121 228.2096,-132.2121 235.2096,-132.2121"/>
<text text-anchor="middle" x="285.5698" y="-142.8" font-family="Times,serif" font-size="14.00" fill="#a020f0">simplify firstnames</text>
</g>
<!-- e -->
<g id="node5" class="node">
<title>e</title>
<path fill="none" stroke="#0000ff" d="M352.4469,-36C352.4469,-36 110.972,-36 110.972,-36 104.972,-36 98.972,-30 98.972,-24 98.972,-24 98.972,-12 98.972,-12 98.972,-6 104.972,0 110.972,0 110.972,0 352.4469,0 352.4469,0 358.4469,0 364.4469,-6 364.4469,-12 364.4469,-12 364.4469,-24 364.4469,-24 364.4469,-30 358.4469,-36 352.4469,-36"/>
<text text-anchor="middle" x="231.7095" y="-13.8" font-family="Times,serif" font-size="14.00" fill="#0000ff">BD MAL J M DE LATTRE DE TASSIGNY</text>
</g>
<!-- d&#45;&gt;e -->
<g id="edge4" class="edge">
<title>d&#45;&gt;e</title>
<path fill="none" stroke="#a020f0" d="M231.7095,-85.7616C231.7095,-74.3597 231.7095,-59.4342 231.7095,-46.494"/>
<polygon fill="#a020f0" stroke="#a020f0" points="235.2096,-46.2121 231.7095,-36.2121 228.2096,-46.2121 235.2096,-46.2121"/>
<text text-anchor="middle" x="282.8252" y="-56.8" font-family="Times,serif" font-size="14.00" fill="#a020f0">remove separators</text>
</g>
</g>
</svg>
